<svg height="222pt" preserveAspectRatio="xMidYMid meet" viewBox="0 0 227 222" width="227pt" xmlns="http://www.w3.org/2000/svg"><g transform="matrix(.1 0 0 -.1 0 222)"><path d="m63 1858c6-100 25-209 49-291 10-34 14-38 37-32 98 23 196 107 225 192 26 77 23 89-40 129-56 36-176 84-243 99l-34 7z"/><path d="m2115 1936c-76-25-162-66-207-99-36-27-36-55 0-132 41-87 117-146 214-169 25-6 28-3 37 31 31 117 42 179 48 281 7 129 13 123-92 88z"/><path d="m680 1112c-55-27-83-77-78-140 12-145 203-182 271-52 22 43 18 111-10 149-24 33-79 61-118 61-16 0-46-8-65-18zm54-53c21-31-3-79-41-79-17 0-53 36-53 54 0 43 68 61 94 25z"/><path d="m1460 1112c-48-25-83-93-75-147 12-82 83-133 169-122 31 4 50 15 78 46 34 36 38 46 38 95 0 44-5 60-26 86-51 61-119 76-184 42zm58-44c26-26 0-88-36-88-40 0-67 61-40 88 15 15 61 15 76 0z"/><path d="m1040 863c0-16 11-39 27-55 26-27 26-28 8-48-20-22-57-26-72-7-6 6-13 24-17 39-9 39-41 54-72 33-29-19-30-46-3-101 36-75 137-105 202-59 16 11 26 10 64-7 73-32 154-4 186 65 24 50 22 83-7 102-31 21-63 6-72-33-4-15-11-33-17-39-15-20-54-15-71 9-15 21-14 24 9 48 14 15 25 38 25 53v27h-95-95z"/><path d="m564 780c-31-12-64-59-64-91 0-15 12-41 26-58 21-26 33-31 67-31 45 1 67 13 85 47 26 49 2 114-49 132-37 13-37 13-65 1z"/><path d="m1644 780c-31-12-64-59-64-91 0-15 12-41 26-58 21-26 33-31 69-31 101 0 130 131 40 175-37 17-41 17-71 5z"/></g></svg>